<svg xmlns="http://www.w3.org/2000/svg" viewBox="0 0 1200 1600" width="1200" height="1600"><rect x="0.0" y="0.0" width="1200.0" height="1600.0" rx="0" fill="#F6F7F9"/><rect x="0.0" y="0.0" width="1200.0" height="78.0" rx="0" fill="#FFFFFF"/><line x1="0" y1="78" x2="1200" y2="78" stroke="#E7E9EE" stroke-width="1"/><text x="28.0" y="45.0" font-family="Inter,Helvetica,Arial,sans-serif" font-size="17" font-weight="600" fill="#12141C" text-anchor="start">Business Portal</text><rect x="768.0" y="22.0" width="280.0" height="34.0" rx="17" fill="#F6F7F9" stroke="#E7E9EE" stroke-width="1"/><circle cx="790.0" cy="39.0" r="5.0" fill="#8B92A0"/><rect x="806.0" y="35.0" width="106.4" height="8.0" rx="4.0" fill="#CFD4DB" opacity="1.0"/><rect x="1070.0" y="23.0" width="80.0" height="32.0" rx="8" fill="#0E8E9E"/><rect x="1086.0" y="35.0" width="48.0" height="8.0" rx="4.0" fill="#FFFFFF" opacity="0.95"/><rect x="1164.0" y="25.0" width="28.0" height="28.0" rx="14.0" fill="#0E8E9E" opacity="0.18"/><circle cx="1178.0" cy="35.4" r="4.5" fill="#0E8E9E" opacity="0.7"/><path d="M1170.2,48.5 a7.8,6.7 0 0 1 15.7,0" fill="#0E8E9E" opacity="0.7"/><text x="28.0" y="109.0" font-family="Inter,Helvetica,Arial,sans-serif" font-size="13" font-weight="500" fill="#12141C" text-anchor="start">Overview</text><rect x="28.0" y="122.0" width="62.0" height="2.0" rx="1" fill="#0E8E9E"/><text x="118.0" y="109.0" font-family="Inter,Helvetica,Arial,sans-serif" font-size="13" font-weight="400" fill="#8B92A0" text-anchor="start">Reports</text><text x="201.0" y="109.0" font-family="Inter,Helvetica,Arial,sans-serif" font-size="13" font-weight="400" fill="#8B92A0" text-anchor="start">Team</text><rect x="28.0" y="130.0" width="562.0" height="124.0" rx="14" fill="#FFFFFF" stroke="#E7E9EE" stroke-width="1"/><rect x="48.0" y="152.0" width="236.0" height="8.0" rx="4.0" fill="#CFD4DB" opacity="1.0"/><text x="48.0" y="196.0" font-family="Inter,Helvetica,Arial,sans-serif" font-size="26" font-weight="600" fill="#12141C" text-anchor="start">41.2K</text><rect x="48.0" y="210.0" width="46.0" height="16.0" rx="8" fill="#0E8E9E" opacity="0.14"/><rect x="55.0" y="214.0" width="32.0" height="7.0" rx="3.5" fill="#0E8E9E" opacity="0.85"/><rect x="610.0" y="130.0" width="562.0" height="124.0" rx="14" fill="#FFFFFF" stroke="#E7E9EE" stroke-width="1"/><rect x="630.0" y="152.0" width="236.0" height="8.0" rx="4.0" fill="#CFD4DB" opacity="1.0"/><text x="630.0" y="196.0" font-family="Inter,Helvetica,Arial,sans-serif" font-size="26" font-weight="600" fill="#12141C" text-anchor="start">41.6K</text><rect x="630.0" y="210.0" width="46.0" height="16.0" rx="8" fill="#0E8E9E" opacity="0.14"/><rect x="637.0" y="214.0" width="32.0" height="7.0" rx="3.5" fill="#0E8E9E" opacity="0.85"/><rect x="28.0" y="278.0" width="1144.0" height="340.0" rx="14" fill="#FFFFFF" stroke="#E7E9EE" stroke-width="1"/><rect x="48.0" y="302.0" width="297.4" height="10.0" rx="5.0" fill="#CFD4DB" opacity="1.0"/><rect x="48.0" y="320.0" width="183.0" height="8.0" rx="4.0" fill="#CFD4DB" opacity="0.7"/><line x1="48.0" y1="408.0" x2="1152.0" y2="408.0" stroke="#E7E9EE" stroke-width="1"/><line x1="48.0" y1="468.0" x2="1152.0" y2="468.0" stroke="#E7E9EE" stroke-width="1"/><line x1="48.0" y1="528.0" x2="1152.0" y2="528.0" stroke="#E7E9EE" stroke-width="1"/><path d="M48.0,490.5 L96.0,489.4 L144.0,512.0 L192.0,523.0 L240.0,487.4 L288.0,495.5 L336.0,516.1 L384.0,549.7 L432.0,556.8 L480.0,513.4 L528.0,544.9 L576.0,556.8 L624.0,556.8 L672.0,535.8 L720.0,535.6 L768.0,517.6 L816.0,514.9 L864.0,489.6 L912.0,471.1 L960.0,468.4 L1008.0,438.4 L1056.0,471.8 L1104.0,479.5 L1152.0,466.9 L1152.0,588.0 L48.0,588.0 Z" fill="#0E8E9E" opacity="0.10"/><path d="M48.0,490.5 L96.0,489.4 L144.0,512.0 L192.0,523.0 L240.0,487.4 L288.0,495.5 L336.0,516.1 L384.0,549.7 L432.0,556.8 L480.0,513.4 L528.0,544.9 L576.0,556.8 L624.0,556.8 L672.0,535.8 L720.0,535.6 L768.0,517.6 L816.0,514.9 L864.0,489.6 L912.0,471.1 L960.0,468.4 L1008.0,438.4 L1056.0,471.8 L1104.0,479.5 L1152.0,466.9" fill="none" stroke="#0E8E9E" stroke-width="2.5" stroke-linecap="round" stroke-linejoin="round"/><circle cx="1152.0" cy="466.9" r="4.5" fill="#0E8E9E"/><rect x="28.0" y="638.0" width="549.1" height="300.0" rx="14" fill="#FFFFFF" stroke="#E7E9EE" stroke-width="1"/><rect x="48.0" y="662.0" width="142.8" height="10.0" rx="5.0" fill="#CFD4DB" opacity="1.0"/><rect x="48.0" y="680.0" width="87.9" height="8.0" rx="4.0" fill="#CFD4DB" opacity="0.7"/><rect x="48.0" y="777.9" width="29.2" height="130.1" rx="3" fill="#0E8E9E" opacity="0.686059467701271"/><rect x="91.6" y="789.4" width="29.2" height="118.6" rx="3" fill="#0E8E9E" opacity="0.6473402310975278"/><rect x="135.3" y="769.6" width="29.2" height="138.4" rx="3" fill="#0E8E9E" opacity="0.7137180822166568"/><rect x="178.9" y="796.0" width="29.2" height="112.0" rx="3" fill="#0E8E9E" opacity="0.6253197767662786"/><rect x="222.5" y="736.8" width="29.2" height="171.2" rx="3" fill="#0E8E9E" opacity="0.823624246271869"/><rect x="266.1" y="795.0" width="29.2" height="113.0" rx="3" fill="#0E8E9E" opacity="0.6287716620940208"/><rect x="309.8" y="790.5" width="29.2" height="117.5" rx="3" fill="#0E8E9E" opacity="0.6437279608885791"/><rect x="353.4" y="744.1" width="29.2" height="163.9" rx="3" fill="#0E8E9E" opacity="0.7990015549792534"/><rect x="397.0" y="768.6" width="29.2" height="139.4" rx="3" fill="#0E8E9E" opacity="0.7172012862064367"/><rect x="440.7" y="794.4" width="29.2" height="113.6" rx="3" fill="#0E8E9E" opacity="0.6305732251054927"/><rect x="484.3" y="737.4" width="29.2" height="170.6" rx="3" fill="#0E8E9E" opacity="0.821694867249023"/><rect x="527.9" y="744.2" width="29.2" height="163.8" rx="3" fill="#0E8E9E" opacity="0.7988608900787999"/><rect x="622.9" y="638.0" width="549.1" height="300.0" rx="14" fill="#FFFFFF" stroke="#E7E9EE" stroke-width="1"/><rect x="642.9" y="662.0" width="142.8" height="10.0" rx="5.0" fill="#CFD4DB" opacity="1.0"/><rect x="642.9" y="680.0" width="87.9" height="8.0" rx="4.0" fill="#CFD4DB" opacity="0.7"/><circle cx="798.6" cy="818.0" r="60.0" fill="none" stroke="#E7E9EE" stroke-width="25.2"/><circle cx="798.6" cy="818.0" r="60.0" fill="none" stroke="#0E8E9E" stroke-width="25.2" stroke-linecap="round" stroke-dasharray="282.1 377.0" transform="rotate(-90 798.6 818.0)"/><rect x="941.4" y="764.0" width="10.0" height="10.0" rx="3" fill="#0E8E9E" opacity="0.85"/><rect x="959.4" y="765.0" width="131.8" height="8.0" rx="4.0" fill="#CFD4DB" opacity="1.0"/><rect x="941.4" y="790.0" width="10.0" height="10.0" rx="3" fill="#0E8E9E" opacity="0.6"/><rect x="959.4" y="791.0" width="131.8" height="8.0" rx="4.0" fill="#CFD4DB" opacity="1.0"/><rect x="941.4" y="816.0" width="10.0" height="10.0" rx="3" fill="#0E8E9E" opacity="0.35"/><rect x="959.4" y="817.0" width="131.8" height="8.0" rx="4.0" fill="#CFD4DB" opacity="1.0"/><rect x="28.0" y="958.0" width="1144.0" height="604.0" rx="14" fill="#FFFFFF" stroke="#E7E9EE" stroke-width="1"/><rect x="48.0" y="984.0" width="228.8" height="10.0" rx="5.0" fill="#CFD4DB" opacity="1.0"/><line x1="28" y1="1036" x2="1172" y2="1036" stroke="#E7E9EE" stroke-width="1"/><rect x="48.0" y="1022.0" width="154.6" height="7.0" rx="3.5" fill="#CFD4DB" opacity="0.75"/><rect x="416.0" y="1022.0" width="154.6" height="7.0" rx="3.5" fill="#CFD4DB" opacity="0.75"/><rect x="784.0" y="1022.0" width="154.6" height="7.0" rx="3.5" fill="#CFD4DB" opacity="0.75"/><rect x="48.0" y="1049.0" width="22.0" height="22.0" rx="11.0" fill="#0E8E9E" opacity="0.18"/><circle cx="59.0" cy="1057.1" r="3.5" fill="#0E8E9E" opacity="0.7"/><path d="M52.8,1067.5 a6.2,5.3 0 0 1 12.3,0" fill="#0E8E9E" opacity="0.7"/><rect x="78.0" y="1055.0" width="184.0" height="9.0" rx="4.5" fill="#CFD4DB" opacity="1.0"/><rect x="416.0" y="1055.0" width="166.7" height="8.0" rx="4.0" fill="#CFD4DB" opacity="0.8"/><rect x="784.0" y="1051.0" width="154.6" height="18.0" rx="9" fill="#0E8E9E" opacity="0.13"/><rect x="790.0" y="1055.0" width="92.7" height="7.0" rx="3.5" fill="#0E8E9E" opacity="0.8"/><rect x="29.0" y="1167.5" width="1142.0" height="121.5" rx="0" fill="#F6F7F9"/><rect x="48.0" y="1170.5" width="22.0" height="22.0" rx="11.0" fill="#0E8E9E" opacity="0.18"/><circle cx="59.0" cy="1178.6" r="3.5" fill="#0E8E9E" opacity="0.7"/><path d="M52.8,1189.0 a6.2,5.3 0 0 1 12.3,0" fill="#0E8E9E" opacity="0.7"/><rect x="78.0" y="1176.5" width="184.0" height="9.0" rx="4.5" fill="#CFD4DB" opacity="1.0"/><rect x="416.0" y="1176.5" width="168.3" height="8.0" rx="4.0" fill="#CFD4DB" opacity="0.8"/><rect x="784.0" y="1172.5" width="154.6" height="18.0" rx="9" fill="#0E8E9E" opacity="0.13"/><rect x="790.0" y="1176.5" width="92.7" height="7.0" rx="3.5" fill="#0E8E9E" opacity="0.8"/><rect x="48.0" y="1292.0" width="22.0" height="22.0" rx="11.0" fill="#0E8E9E" opacity="0.18"/><circle cx="59.0" cy="1300.1" r="3.5" fill="#0E8E9E" opacity="0.7"/><path d="M52.8,1310.5 a6.2,5.3 0 0 1 12.3,0" fill="#0E8E9E" opacity="0.7"/><rect x="78.0" y="1298.0" width="184.0" height="9.0" rx="4.5" fill="#CFD4DB" opacity="1.0"/><rect x="416.0" y="1298.0" width="166.3" height="8.0" rx="4.0" fill="#CFD4DB" opacity="0.8"/><rect x="784.0" y="1294.0" width="154.6" height="18.0" rx="9" fill="#0E8E9E" opacity="0.13"/><rect x="790.0" y="1298.0" width="92.7" height="7.0" rx="3.5" fill="#0E8E9E" opacity="0.8"/><rect x="29.0" y="1410.5" width="1142.0" height="121.5" rx="0" fill="#F6F7F9"/><rect x="48.0" y="1413.5" width="22.0" height="22.0" rx="11.0" fill="#0E8E9E" opacity="0.18"/><circle cx="59.0" cy="1421.6" r="3.5" fill="#0E8E9E" opacity="0.7"/><path d="M52.8,1432.0 a6.2,5.3 0 0 1 12.3,0" fill="#0E8E9E" opacity="0.7"/><rect x="78.0" y="1419.5" width="184.0" height="9.0" rx="4.5" fill="#CFD4DB" opacity="1.0"/><rect x="416.0" y="1419.5" width="213.4" height="8.0" rx="4.0" fill="#CFD4DB" opacity="0.8"/><rect x="784.0" y="1415.5" width="154.6" height="18.0" rx="9" fill="#0E8E9E" opacity="0.13"/><rect x="790.0" y="1419.5" width="92.7" height="7.0" rx="3.5" fill="#0E8E9E" opacity="0.8"/></svg>