<svg xmlns="http://www.w3.org/2000/svg" viewBox="0 0 1600 1000" width="1600" height="1000"><rect x="0.0" y="0.0" width="1600.0" height="1000.0" rx="0" fill="#F6F7F9"/><rect x="0.0" y="0.0" width="250.0" height="1000.0" rx="0" fill="#FBFBFC"/><line x1="250" y1="0" x2="250" y2="1000" stroke="#E7E9EE" stroke-width="1"/><rect x="22.0" y="24.0" width="26.0" height="26.0" rx="8" fill="#0E8E9E"/><text x="58.0" y="42.0" font-family="Inter,Helvetica,Arial,sans-serif" font-size="14" font-weight="600" fill="#12141C" text-anchor="start">Control Panel</text><rect x="24.0" y="81.0" width="14.0" height="14.0" rx="4" fill="#CFD4DB"/><rect x="48.0" y="83.0" width="100.0" height="9.0" rx="4.5" fill="#CFD4DB" opacity="0.8"/><rect x="12.0" y="116.0" width="226.0" height="34.0" rx="8" fill="#0E8E9E" opacity="0.1"/><rect x="24.0" y="125.0" width="14.0" height="14.0" rx="4" fill="#0E8E9E"/><rect x="48.0" y="127.0" width="100.0" height="9.0" rx="4.5" fill="#0E8E9E" opacity="0.85"/><rect x="24.0" y="169.0" width="14.0" height="14.0" rx="4" fill="#CFD4DB"/><rect x="48.0" y="171.0" width="100.0" height="9.0" rx="4.5" fill="#CFD4DB" opacity="0.8"/><rect x="24.0" y="213.0" width="14.0" height="14.0" rx="4" fill="#CFD4DB"/><rect x="48.0" y="215.0" width="100.0" height="9.0" rx="4.5" fill="#CFD4DB" opacity="0.8"/><rect x="24.0" y="257.0" width="14.0" height="14.0" rx="4" fill="#CFD4DB"/><rect x="48.0" y="259.0" width="100.0" height="9.0" rx="4.5" fill="#CFD4DB" opacity="0.8"/><rect x="24.0" y="301.0" width="14.0" height="14.0" rx="4" fill="#CFD4DB"/><rect x="48.0" y="303.0" width="100.0" height="9.0" rx="4.5" fill="#CFD4DB" opacity="0.8"/><rect x="24.0" y="345.0" width="14.0" height="14.0" rx="4" fill="#CFD4DB"/><rect x="48.0" y="347.0" width="100.0" height="9.0" rx="4.5" fill="#CFD4DB" opacity="0.8"/><rect x="12.0" y="936.0" width="226.0" height="46.0" rx="10" fill="#F6F7F9"/><rect x="24.0" y="947.0" width="24.0" height="24.0" rx="12.0" fill="#0E8E9E" opacity="0.18"/><circle cx="36.0" cy="955.9" r="3.8" fill="#0E8E9E" opacity="0.7"/><path d="M29.3,967.2 a6.7,5.8 0 0 1 13.4,0" fill="#0E8E9E" opacity="0.7"/><rect x="58.0" y="954.0" width="80.0" height="8.0" rx="4.0" fill="#CFD4DB" opacity="1.0"/><rect x="250.0" y="0.0" width="1350.0" height="72.0" rx="0" fill="#FFFFFF"/><line x1="250" y1="72" x2="1600" y2="72" stroke="#E7E9EE" stroke-width="1"/><text x="278.0" y="42.0" font-family="Inter,Helvetica,Arial,sans-serif" font-size="17" font-weight="600" fill="#12141C" text-anchor="start">Control Panel</text><rect x="1168.0" y="19.0" width="280.0" height="34.0" rx="17" fill="#F6F7F9" stroke="#E7E9EE" stroke-width="1"/><circle cx="1190.0" cy="36.0" r="5.0" fill="#8B92A0"/><rect x="1206.0" y="32.0" width="106.4" height="8.0" rx="4.0" fill="#CFD4DB" opacity="1.0"/><rect x="1470.0" y="20.0" width="80.0" height="32.0" rx="8" fill="#0E8E9E"/><rect x="1486.0" y="32.0" width="48.0" height="8.0" rx="4.0" fill="#FFFFFF" opacity="0.95"/><rect x="1564.0" y="22.0" width="28.0" height="28.0" rx="14.0" fill="#0E8E9E" opacity="0.18"/><circle cx="1578.0" cy="32.4" r="4.5" fill="#0E8E9E" opacity="0.7"/><path d="M1570.2,45.5 a7.8,6.7 0 0 1 15.7,0" fill="#0E8E9E" opacity="0.7"/><text x="278.0" y="103.0" font-family="Inter,Helvetica,Arial,sans-serif" font-size="13" font-weight="500" fill="#12141C" text-anchor="start">Overview</text><rect x="278.0" y="116.0" width="62.0" height="2.0" rx="1" fill="#0E8E9E"/><text x="368.0" y="103.0" font-family="Inter,Helvetica,Arial,sans-serif" font-size="13" font-weight="400" fill="#8B92A0" text-anchor="start">Reports</text><text x="451.0" y="103.0" font-family="Inter,Helvetica,Arial,sans-serif" font-size="13" font-weight="400" fill="#8B92A0" text-anchor="start">Segments</text><text x="541.0" y="103.0" font-family="Inter,Helvetica,Arial,sans-serif" font-size="13" font-weight="400" fill="#8B92A0" text-anchor="start">Alerts</text><rect x="282.0" y="124.0" width="306.5" height="112.0" rx="14" fill="#FFFFFF" stroke="#E7E9EE" stroke-width="1"/><rect x="302.0" y="146.0" width="128.7" height="8.0" rx="4.0" fill="#CFD4DB" opacity="1.0"/><text x="302.0" y="190.0" font-family="Inter,Helvetica,Arial,sans-serif" font-size="26" font-weight="600" fill="#12141C" text-anchor="start">65.0K</text><rect x="302.0" y="204.0" width="46.0" height="16.0" rx="8" fill="#0E8E9E" opacity="0.14"/><rect x="309.0" y="208.0" width="32.0" height="7.0" rx="3.5" fill="#0E8E9E" opacity="0.85"/><rect x="608.5" y="124.0" width="306.5" height="112.0" rx="14" fill="#FFFFFF" stroke="#E7E9EE" stroke-width="1"/><rect x="628.5" y="146.0" width="128.7" height="8.0" rx="4.0" fill="#CFD4DB" opacity="1.0"/><text x="628.5" y="190.0" font-family="Inter,Helvetica,Arial,sans-serif" font-size="26" font-weight="600" fill="#12141C" text-anchor="start">73.0K</text><rect x="628.5" y="204.0" width="46.0" height="16.0" rx="8" fill="#C2410C" opacity="0.14"/><rect x="635.5" y="208.0" width="32.0" height="7.0" rx="3.5" fill="#C2410C" opacity="0.85"/><rect x="935.0" y="124.0" width="306.5" height="112.0" rx="14" fill="#FFFFFF" stroke="#E7E9EE" stroke-width="1"/><rect x="955.0" y="146.0" width="128.7" height="8.0" rx="4.0" fill="#CFD4DB" opacity="1.0"/><text x="955.0" y="190.0" font-family="Inter,Helvetica,Arial,sans-serif" font-size="26" font-weight="600" fill="#12141C" text-anchor="start">10.4K</text><rect x="955.0" y="204.0" width="46.0" height="16.0" rx="8" fill="#0E8E9E" opacity="0.14"/><rect x="962.0" y="208.0" width="32.0" height="7.0" rx="3.5" fill="#0E8E9E" opacity="0.85"/><rect x="1261.5" y="124.0" width="306.5" height="112.0" rx="14" fill="#FFFFFF" stroke="#E7E9EE" stroke-width="1"/><rect x="1281.5" y="146.0" width="128.7" height="8.0" rx="4.0" fill="#CFD4DB" opacity="1.0"/><text x="1281.5" y="190.0" font-family="Inter,Helvetica,Arial,sans-serif" font-size="26" font-weight="600" fill="#12141C" text-anchor="start">72.9K</text><rect x="1281.5" y="204.0" width="46.0" height="16.0" rx="8" fill="#C2410C" opacity="0.14"/><rect x="1288.5" y="208.0" width="32.0" height="7.0" rx="3.5" fill="#C2410C" opacity="0.85"/><rect x="282.0" y="256.0" width="797.3" height="472.0" rx="14" fill="#FFFFFF" stroke="#E7E9EE" stroke-width="1"/><rect x="302.0" y="280.0" width="207.3" height="10.0" rx="5.0" fill="#CFD4DB" opacity="1.0"/><rect x="302.0" y="298.0" width="127.6" height="8.0" rx="4.0" fill="#CFD4DB" opacity="0.7"/><line x1="302.0" y1="419.0" x2="1059.3" y2="419.0" stroke="#E7E9EE" stroke-width="1"/><line x1="302.0" y1="512.0" x2="1059.3" y2="512.0" stroke="#E7E9EE" stroke-width="1"/><line x1="302.0" y1="605.0" x2="1059.3" y2="605.0" stroke="#E7E9EE" stroke-width="1"/><path d="M302.0,493.9 L334.9,456.1 L367.9,488.0 L400.8,453.3 L433.7,472.3 L466.6,453.9 L499.6,409.1 L532.5,352.2 L565.4,377.3 L598.3,356.1 L631.3,352.0 L664.2,407.1 L697.1,377.0 L730.1,367.6 L763.0,352.0 L795.9,352.0 L828.8,352.0 L861.8,352.0 L894.7,352.0 L927.6,407.5 L960.5,370.9 L993.5,359.0 L1026.4,400.1 L1059.3,402.3 L1059.3,698.0 L302.0,698.0 Z" fill="#0E8E9E" opacity="0.10"/><path d="M302.0,493.9 L334.9,456.1 L367.9,488.0 L400.8,453.3 L433.7,472.3 L466.6,453.9 L499.6,409.1 L532.5,352.2 L565.4,377.3 L598.3,356.1 L631.3,352.0 L664.2,407.1 L697.1,377.0 L730.1,367.6 L763.0,352.0 L795.9,352.0 L828.8,352.0 L861.8,352.0 L894.7,352.0 L927.6,407.5 L960.5,370.9 L993.5,359.0 L1026.4,400.1 L1059.3,402.3" fill="none" stroke="#0E8E9E" stroke-width="2.5" stroke-linecap="round" stroke-linejoin="round"/><circle cx="1059.3" cy="402.3" r="4.5" fill="#0E8E9E"/><rect x="1099.3" y="256.0" width="468.7" height="472.0" rx="14" fill="#FFFFFF" stroke="#E7E9EE" stroke-width="1"/><rect x="1119.3" y="280.0" width="121.9" height="10.0" rx="5.0" fill="#CFD4DB" opacity="1.0"/><rect x="1119.3" y="298.0" width="75.0" height="8.0" rx="4.0" fill="#CFD4DB" opacity="0.7"/><circle cx="1249.3" cy="539.2" r="93.7" fill="none" stroke="#E7E9EE" stroke-width="39.4"/><circle cx="1249.3" cy="539.2" r="93.7" fill="none" stroke="#0E8E9E" stroke-width="39.4" stroke-linecap="round" stroke-dasharray="387.5 589.0" transform="rotate(-90 1249.3 539.2)"/><rect x="1371.2" y="454.2" width="10.0" height="10.0" rx="3" fill="#0E8E9E" opacity="0.85"/><rect x="1389.2" y="455.2" width="112.5" height="8.0" rx="4.0" fill="#CFD4DB" opacity="1.0"/><rect x="1371.2" y="480.2" width="10.0" height="10.0" rx="3" fill="#0E8E9E" opacity="0.6"/><rect x="1389.2" y="481.2" width="112.5" height="8.0" rx="4.0" fill="#CFD4DB" opacity="1.0"/><rect x="1371.2" y="506.2" width="10.0" height="10.0" rx="3" fill="#0E8E9E" opacity="0.35"/><rect x="1389.2" y="507.2" width="112.5" height="8.0" rx="4.0" fill="#CFD4DB" opacity="1.0"/><rect x="282.0" y="748.0" width="1286.0" height="220.0" rx="14" fill="#FFFFFF" stroke="#E7E9EE" stroke-width="1"/><rect x="302.0" y="774.0" width="257.2" height="10.0" rx="5.0" fill="#CFD4DB" opacity="1.0"/><line x1="282" y1="826" x2="1568" y2="826" stroke="#E7E9EE" stroke-width="1"/><rect x="302.0" y="812.0" width="130.8" height="7.0" rx="3.5" fill="#CFD4DB" opacity="0.75"/><rect x="613.5" y="812.0" width="130.8" height="7.0" rx="3.5" fill="#CFD4DB" opacity="0.75"/><rect x="925.0" y="812.0" width="130.8" height="7.0" rx="3.5" fill="#CFD4DB" opacity="0.75"/><rect x="1236.5" y="812.0" width="130.8" height="7.0" rx="3.5" fill="#CFD4DB" opacity="0.75"/><rect x="302.0" y="839.0" width="22.0" height="22.0" rx="11.0" fill="#0E8E9E" opacity="0.18"/><circle cx="313.0" cy="847.1" r="3.5" fill="#0E8E9E" opacity="0.7"/><path d="M306.8,857.5 a6.2,5.3 0 0 1 12.3,0" fill="#0E8E9E" opacity="0.7"/><rect x="332.0" y="845.0" width="155.8" height="9.0" rx="4.5" fill="#CFD4DB" opacity="1.0"/><rect x="613.5" y="845.0" width="186.0" height="8.0" rx="4.0" fill="#CFD4DB" opacity="0.8"/><rect x="925.0" y="845.0" width="121.1" height="8.0" rx="4.0" fill="#CFD4DB" opacity="0.8"/><rect x="1236.5" y="841.0" width="130.8" height="18.0" rx="9" fill="#0E8E9E" opacity="0.13"/><rect x="1242.5" y="845.0" width="78.5" height="7.0" rx="3.5" fill="#0E8E9E" opacity="0.8"/><rect x="283.0" y="861.5" width="1284.0" height="25.5" rx="0" fill="#F6F7F9"/><rect x="302.0" y="864.5" width="22.0" height="22.0" rx="11.0" fill="#0E8E9E" opacity="0.18"/><circle cx="313.0" cy="872.6" r="3.5" fill="#0E8E9E" opacity="0.7"/><path d="M306.8,883.0 a6.2,5.3 0 0 1 12.3,0" fill="#0E8E9E" opacity="0.7"/><rect x="332.0" y="870.5" width="155.8" height="9.0" rx="4.5" fill="#CFD4DB" opacity="1.0"/><rect x="613.5" y="870.5" width="116.3" height="8.0" rx="4.0" fill="#CFD4DB" opacity="0.8"/><rect x="925.0" y="870.5" width="171.5" height="8.0" rx="4.0" fill="#CFD4DB" opacity="0.8"/><rect x="1236.5" y="866.5" width="130.8" height="18.0" rx="9" fill="#0E8E9E" opacity="0.13"/><rect x="1242.5" y="870.5" width="78.5" height="7.0" rx="3.5" fill="#0E8E9E" opacity="0.8"/><rect x="302.0" y="890.0" width="22.0" height="22.0" rx="11.0" fill="#0E8E9E" opacity="0.18"/><circle cx="313.0" cy="898.1" r="3.5" fill="#0E8E9E" opacity="0.7"/><path d="M306.8,908.5 a6.2,5.3 0 0 1 12.3,0" fill="#0E8E9E" opacity="0.7"/><rect x="332.0" y="896.0" width="155.8" height="9.0" rx="4.5" fill="#CFD4DB" opacity="1.0"/><rect x="613.5" y="896.0" width="150.6" height="8.0" rx="4.0" fill="#CFD4DB" opacity="0.8"/><rect x="925.0" y="896.0" width="143.0" height="8.0" rx="4.0" fill="#CFD4DB" opacity="0.8"/><rect x="1236.5" y="892.0" width="130.8" height="18.0" rx="9" fill="#0E8E9E" opacity="0.13"/><rect x="1242.5" y="896.0" width="78.5" height="7.0" rx="3.5" fill="#0E8E9E" opacity="0.8"/><rect x="283.0" y="912.5" width="1284.0" height="25.5" rx="0" fill="#F6F7F9"/><rect x="302.0" y="915.5" width="22.0" height="22.0" rx="11.0" fill="#0E8E9E" opacity="0.18"/><circle cx="313.0" cy="923.6" r="3.5" fill="#0E8E9E" opacity="0.7"/><path d="M306.8,934.0 a6.2,5.3 0 0 1 12.3,0" fill="#0E8E9E" opacity="0.7"/><rect x="332.0" y="921.5" width="155.8" height="9.0" rx="4.5" fill="#CFD4DB" opacity="1.0"/><rect x="613.5" y="921.5" width="171.9" height="8.0" rx="4.0" fill="#CFD4DB" opacity="0.8"/><rect x="925.0" y="921.5" width="173.5" height="8.0" rx="4.0" fill="#CFD4DB" opacity="0.8"/><rect x="1236.5" y="917.5" width="130.8" height="18.0" rx="9" fill="#0E8E9E" opacity="0.13"/><rect x="1242.5" y="921.5" width="78.5" height="7.0" rx="3.5" fill="#0E8E9E" opacity="0.8"/></svg>