<svg xmlns="http://www.w3.org/2000/svg" viewBox="0 0 1200 1600" width="1200" height="1600"><rect x="0.0" y="0.0" width="1200.0" height="1600.0" rx="0" fill="#F6F7F9"/><rect x="0.0" y="0.0" width="1200.0" height="78.0" rx="0" fill="#FFFFFF"/><line x1="0" y1="78" x2="1200" y2="78" stroke="#E7E9EE" stroke-width="1"/><text x="28.0" y="45.0" font-family="Inter,Helvetica,Arial,sans-serif" font-size="17" font-weight="600" fill="#12141C" text-anchor="start">Design System</text><rect x="768.0" y="22.0" width="280.0" height="34.0" rx="17" fill="#F6F7F9" stroke="#E7E9EE" stroke-width="1"/><circle cx="790.0" cy="39.0" r="5.0" fill="#8B92A0"/><rect x="806.0" y="35.0" width="106.4" height="8.0" rx="4.0" fill="#CFD4DB" opacity="1.0"/><rect x="1070.0" y="23.0" width="80.0" height="32.0" rx="8" fill="#0E8E9E"/><rect x="1086.0" y="35.0" width="48.0" height="8.0" rx="4.0" fill="#FFFFFF" opacity="0.95"/><rect x="1164.0" y="25.0" width="28.0" height="28.0" rx="14.0" fill="#0E8E9E" opacity="0.18"/><circle cx="1178.0" cy="35.4" r="4.5" fill="#0E8E9E" opacity="0.7"/><path d="M1170.2,48.5 a7.8,6.7 0 0 1 15.7,0" fill="#0E8E9E" opacity="0.7"/><rect x="28.0" y="104.0" width="1144.0" height="1468.0" rx="14" fill="#FFFFFF" stroke="#E7E9EE" stroke-width="1"/><rect x="58.0" y="138.0" width="151.8" height="11.0" rx="5.5" fill="#CFD4DB" opacity="1.0"/><rect x="58.0" y="168.0" width="95.8" height="62.0" rx="8" fill="#0E8E9E" opacity="0.08"/><rect x="167.8" y="168.0" width="95.8" height="62.0" rx="8" fill="#0E8E9E" opacity="0.18"/><rect x="277.6" y="168.0" width="95.8" height="62.0" rx="8" fill="#0E8E9E" opacity="0.28"/><rect x="387.4" y="168.0" width="95.8" height="62.0" rx="8" fill="#0E8E9E" opacity="0.38000000000000006"/><rect x="497.2" y="168.0" width="95.8" height="62.0" rx="8" fill="#0E8E9E" opacity="0.48000000000000004"/><rect x="607.0" y="168.0" width="95.8" height="62.0" rx="8" fill="#0E8E9E" opacity="0.58"/><rect x="716.8" y="168.0" width="95.8" height="62.0" rx="8" fill="#0E8E9E" opacity="0.68"/><rect x="826.6" y="168.0" width="95.8" height="62.0" rx="8" fill="#0E8E9E" opacity="0.78"/><rect x="936.4" y="168.0" width="95.8" height="62.0" rx="8" fill="#0E8E9E" opacity="0.88"/><rect x="1046.2" y="168.0" width="95.8" height="62.0" rx="8" fill="#0E8E9E" opacity="0.98"/><rect x="58.0" y="264.0" width="119.2" height="11.0" rx="5.5" fill="#CFD4DB" opacity="1.0"/><rect x="58.0" y="292.0" width="120.0" height="42.0" rx="8" fill="#0E8E9E"/><rect x="78.0" y="309.0" width="80.0" height="8.0" rx="4.0" fill="#FFFFFF" opacity="0.95"/><rect x="196.0" y="292.0" width="132.0" height="42.0" rx="8" fill="#FFFFFF" stroke="#E7E9EE" stroke-width="1"/><rect x="216.0" y="309.0" width="92.0" height="8.0" rx="4.0" fill="#CFD4DB" opacity="0.9"/><rect x="346.0" y="292.0" width="108.0" height="42.0" rx="8" fill="#FFFFFF" stroke="#E7E9EE" stroke-width="1"/><rect x="366.0" y="309.0" width="68.0" height="8.0" rx="4.0" fill="#CFD4DB" opacity="0.9"/><rect x="472.0" y="292.0" width="96.0" height="42.0" rx="8" fill="#FFFFFF" stroke="#E7E9EE" stroke-width="1"/><rect x="492.0" y="309.0" width="56.0" height="8.0" rx="4.0" fill="#CFD4DB" opacity="0.9"/><rect x="58.0" y="366.0" width="140.9" height="11.0" rx="5.5" fill="#CFD4DB" opacity="1.0"/><rect x="58.0" y="394.0" width="159.0" height="8.0" rx="4.0" fill="#CFD4DB" opacity="0.8"/><rect x="58.0" y="410.0" width="530.0" height="46.0" rx="8" fill="#FFFFFF" stroke="#0E8E9E" stroke-width="2"/><rect x="74.0" y="429.0" width="212.0" height="8.0" rx="4.0" fill="#CFD4DB" opacity="1.0"/><rect x="612.0" y="394.0" width="159.0" height="8.0" rx="4.0" fill="#CFD4DB" opacity="0.8"/><rect x="612.0" y="410.0" width="530.0" height="46.0" rx="8" fill="#FFFFFF" stroke="#E7E9EE" stroke-width="1"/><rect x="628.0" y="429.0" width="212.0" height="8.0" rx="4.0" fill="#CFD4DB" opacity="1.0"/><rect x="58.0" y="494.0" width="108.4" height="11.0" rx="5.5" fill="#CFD4DB" opacity="1.0"/><rect x="58.0" y="522.0" width="78.0" height="32.0" rx="16" fill="#0E8E9E" opacity="0.1"/><rect x="74.0" y="534.0" width="46.0" height="8.0" rx="4.0" fill="#0E8E9E" opacity="0.8"/><rect x="150.0" y="522.0" width="104.0" height="32.0" rx="16" fill="#0E8E9E" opacity="0.16"/><rect x="166.0" y="534.0" width="72.0" height="8.0" rx="4.0" fill="#0E8E9E" opacity="0.8"/><rect x="268.0" y="522.0" width="130.0" height="32.0" rx="16" fill="#0E8E9E" opacity="0.22"/><rect x="284.0" y="534.0" width="98.0" height="8.0" rx="4.0" fill="#0E8E9E" opacity="0.8"/><rect x="412.0" y="522.0" width="78.0" height="32.0" rx="16" fill="#0E8E9E" opacity="0.1"/><rect x="428.0" y="534.0" width="46.0" height="8.0" rx="4.0" fill="#0E8E9E" opacity="0.8"/><rect x="504.0" y="522.0" width="104.0" height="32.0" rx="16" fill="#0E8E9E" opacity="0.16"/><rect x="520.0" y="534.0" width="72.0" height="8.0" rx="4.0" fill="#0E8E9E" opacity="0.8"/><rect x="622.0" y="522.0" width="130.0" height="32.0" rx="16" fill="#0E8E9E" opacity="0.22"/><rect x="638.0" y="534.0" width="98.0" height="8.0" rx="4.0" fill="#0E8E9E" opacity="0.8"/><rect x="58.0" y="588.0" width="173.4" height="11.0" rx="5.5" fill="#CFD4DB" opacity="1.0"/><rect x="58.0" y="616.0" width="1084.0" height="120.0" rx="14" fill="#FFFFFF" stroke="#E7E9EE" stroke-width="1"/><rect x="78.0" y="642.0" width="325.2" height="10.0" rx="5.0" fill="#CFD4DB" opacity="1.0"/><rect x="78.0" y="666.0" width="596.2" height="8.0" rx="4.0" fill="#CFD4DB" opacity="0.75"/><rect x="78.0" y="686.0" width="455.3" height="8.0" rx="4.0" fill="#CFD4DB" opacity="0.75"/></svg>