<svg xmlns="http://www.w3.org/2000/svg" viewBox="0 0 1600 1000" width="1600" height="1000"><rect x="0.0" y="0.0" width="1600.0" height="1000.0" rx="0" fill="#F6F7F9"/><rect x="0.0" y="0.0" width="250.0" height="1000.0" rx="0" fill="#FBFBFC"/><line x1="250" y1="0" x2="250" y2="1000" stroke="#E7E9EE" stroke-width="1"/><rect x="22.0" y="24.0" width="26.0" height="26.0" rx="8" fill="#B45309"/><text x="58.0" y="42.0" font-family="Inter,Helvetica,Arial,sans-serif" font-size="14" font-weight="600" fill="#12141C" text-anchor="start">Fleet</text><rect x="24.0" y="81.0" width="14.0" height="14.0" rx="4" fill="#CFD4DB"/><rect x="48.0" y="83.0" width="100.0" height="9.0" rx="4.5" fill="#CFD4DB" opacity="0.8"/><rect x="12.0" y="116.0" width="226.0" height="34.0" rx="8" fill="#B45309" opacity="0.1"/><rect x="24.0" y="125.0" width="14.0" height="14.0" rx="4" fill="#B45309"/><rect x="48.0" y="127.0" width="100.0" height="9.0" rx="4.5" fill="#B45309" opacity="0.85"/><rect x="24.0" y="169.0" width="14.0" height="14.0" rx="4" fill="#CFD4DB"/><rect x="48.0" y="171.0" width="100.0" height="9.0" rx="4.5" fill="#CFD4DB" opacity="0.8"/><rect x="24.0" y="213.0" width="14.0" height="14.0" rx="4" fill="#CFD4DB"/><rect x="48.0" y="215.0" width="100.0" height="9.0" rx="4.5" fill="#CFD4DB" opacity="0.8"/><rect x="24.0" y="257.0" width="14.0" height="14.0" rx="4" fill="#CFD4DB"/><rect x="48.0" y="259.0" width="100.0" height="9.0" rx="4.5" fill="#CFD4DB" opacity="0.8"/><rect x="24.0" y="301.0" width="14.0" height="14.0" rx="4" fill="#CFD4DB"/><rect x="48.0" y="303.0" width="100.0" height="9.0" rx="4.5" fill="#CFD4DB" opacity="0.8"/><rect x="24.0" y="345.0" width="14.0" height="14.0" rx="4" fill="#CFD4DB"/><rect x="48.0" y="347.0" width="100.0" height="9.0" rx="4.5" fill="#CFD4DB" opacity="0.8"/><rect x="12.0" y="936.0" width="226.0" height="46.0" rx="10" fill="#F6F7F9"/><rect x="24.0" y="947.0" width="24.0" height="24.0" rx="12.0" fill="#B45309" opacity="0.18"/><circle cx="36.0" cy="955.9" r="3.8" fill="#B45309" opacity="0.7"/><path d="M29.3,967.2 a6.7,5.8 0 0 1 13.4,0" fill="#B45309" opacity="0.7"/><rect x="58.0" y="954.0" width="80.0" height="8.0" rx="4.0" fill="#CFD4DB" opacity="1.0"/><rect x="250.0" y="0.0" width="1350.0" height="72.0" rx="0" fill="#FFFFFF"/><line x1="250" y1="72" x2="1600" y2="72" stroke="#E7E9EE" stroke-width="1"/><text x="278.0" y="42.0" font-family="Inter,Helvetica,Arial,sans-serif" font-size="17" font-weight="600" fill="#12141C" text-anchor="start">Fleet</text><rect x="1168.0" y="19.0" width="280.0" height="34.0" rx="17" fill="#F6F7F9" stroke="#E7E9EE" stroke-width="1"/><circle cx="1190.0" cy="36.0" r="5.0" fill="#8B92A0"/><rect x="1206.0" y="32.0" width="106.4" height="8.0" rx="4.0" fill="#CFD4DB" opacity="1.0"/><rect x="1470.0" y="20.0" width="80.0" height="32.0" rx="8" fill="#B45309"/><rect x="1486.0" y="32.0" width="48.0" height="8.0" rx="4.0" fill="#FFFFFF" opacity="0.95"/><rect x="1564.0" y="22.0" width="28.0" height="28.0" rx="14.0" fill="#B45309" opacity="0.18"/><circle cx="1578.0" cy="32.4" r="4.5" fill="#B45309" opacity="0.7"/><path d="M1570.2,45.5 a7.8,6.7 0 0 1 15.7,0" fill="#B45309" opacity="0.7"/><text x="278.0" y="103.0" font-family="Inter,Helvetica,Arial,sans-serif" font-size="13" font-weight="500" fill="#12141C" text-anchor="start">Map</text><rect x="278.0" y="116.0" width="27.0" height="2.0" rx="1" fill="#B45309"/><text x="333.0" y="103.0" font-family="Inter,Helvetica,Arial,sans-serif" font-size="13" font-weight="400" fill="#8B92A0" text-anchor="start">List</text><text x="395.0" y="103.0" font-family="Inter,Helvetica,Arial,sans-serif" font-size="13" font-weight="400" fill="#8B92A0" text-anchor="start">Saved</text><text x="464.0" y="103.0" font-family="Inter,Helvetica,Arial,sans-serif" font-size="13" font-weight="400" fill="#8B92A0" text-anchor="start">Alerts</text><rect x="282.0" y="124.0" width="565.8" height="844.0" rx="14" fill="#FFFFFF" stroke="#E7E9EE" stroke-width="1"/><rect x="302.0" y="152.0" width="192.4" height="10.0" rx="5.0" fill="#CFD4DB" opacity="1.0"/><rect x="298.0" y="176.0" width="533.8" height="124.0" rx="14" fill="#FFFFFF" stroke="#E7E9EE" stroke-width="1"/><rect x="312.0" y="190.0" width="96.0" height="96.0" rx="10" fill="#B45309" opacity="0.13"/><rect x="324.0" y="206.0" width="72.0" height="6.0" rx="3" fill="#B45309" opacity="0.4"/><rect x="428.0" y="215.7" width="162.1" height="10.0" rx="5.0" fill="#CFD4DB" opacity="1.0"/><rect x="428.0" y="245.4" width="135.6" height="8.0" rx="4.0" fill="#CFD4DB" opacity="0.7"/><rect x="726.4" y="226.0" width="85.4" height="24.0" rx="12" fill="#B45309" opacity="0.13"/><rect x="738.4" y="234.0" width="51.2" height="8.0" rx="4.0" fill="#B45309" opacity="0.85"/><rect x="298.0" y="314.0" width="533.8" height="124.0" rx="14" fill="#FFFFFF" stroke="#E7E9EE" stroke-width="1"/><rect x="312.0" y="328.0" width="96.0" height="96.0" rx="10" fill="#B45309" opacity="0.13"/><rect x="324.0" y="344.0" width="72.0" height="6.0" rx="3" fill="#B45309" opacity="0.4"/><rect x="428.0" y="353.7" width="164.0" height="10.0" rx="5.0" fill="#CFD4DB" opacity="1.0"/><rect x="428.0" y="383.4" width="141.7" height="8.0" rx="4.0" fill="#CFD4DB" opacity="0.7"/><rect x="726.4" y="364.0" width="85.4" height="24.0" rx="12" fill="#B45309" opacity="0.13"/><rect x="738.4" y="372.0" width="51.2" height="8.0" rx="4.0" fill="#B45309" opacity="0.85"/><rect x="298.0" y="452.0" width="533.8" height="124.0" rx="14" fill="#FFFFFF" stroke="#E7E9EE" stroke-width="1"/><rect x="312.0" y="466.0" width="96.0" height="96.0" rx="10" fill="#B45309" opacity="0.13"/><rect x="324.0" y="482.0" width="72.0" height="6.0" rx="3" fill="#B45309" opacity="0.4"/><rect x="428.0" y="491.7" width="201.4" height="10.0" rx="5.0" fill="#CFD4DB" opacity="1.0"/><rect x="428.0" y="521.4" width="120.7" height="8.0" rx="4.0" fill="#CFD4DB" opacity="0.7"/><rect x="726.4" y="502.0" width="85.4" height="24.0" rx="12" fill="#B45309" opacity="0.13"/><rect x="738.4" y="510.0" width="51.2" height="8.0" rx="4.0" fill="#B45309" opacity="0.85"/><rect x="871.8" y="124.0" width="696.2" height="844.0" rx="14" fill="#B45309" opacity="0.08"/><path d="M975.0,643.9 l63.8,25.5" stroke="#FFFFFF" stroke-width="8" opacity="0.7" stroke-linecap="round"/><path d="M998.9,371.1 l100.1,9.8" stroke="#FFFFFF" stroke-width="8" opacity="0.7" stroke-linecap="round"/><path d="M1240.9,647.0 l112.7,45.5" stroke="#FFFFFF" stroke-width="8" opacity="0.7" stroke-linecap="round"/><path d="M1422.4,496.6 l111.4,-49.8" stroke="#FFFFFF" stroke-width="3" opacity="0.7" stroke-linecap="round"/><path d="M1352.0,638.3 l101.8,0.1" stroke="#FFFFFF" stroke-width="3" opacity="0.7" stroke-linecap="round"/><path d="M1369.1,567.6 l108.7,-10.6" stroke="#FFFFFF" stroke-width="5" opacity="0.7" stroke-linecap="round"/><path d="M1338.5,332.0 l52.9,-20.0" stroke="#FFFFFF" stroke-width="8" opacity="0.7" stroke-linecap="round"/><path d="M1007.2,484.7 l124.4,40.8" stroke="#FFFFFF" stroke-width="3" opacity="0.7" stroke-linecap="round"/><path d="M1503.7,265.0 l69.0,10.7" stroke="#FFFFFF" stroke-width="8" opacity="0.7" stroke-linecap="round"/><path d="M1077.1,231.8 l126.1,55.8" stroke="#FFFFFF" stroke-width="5" opacity="0.7" stroke-linecap="round"/><path d="M1446.2,663.5 l105.8,53.7" stroke="#FFFFFF" stroke-width="5" opacity="0.7" stroke-linecap="round"/><path d="M1479.5,959.6 l111.6,-35.1" stroke="#FFFFFF" stroke-width="3" opacity="0.7" stroke-linecap="round"/><path d="M1389.1,630.6 l168.1,14.8" stroke="#FFFFFF" stroke-width="8" opacity="0.7" stroke-linecap="round"/><path d="M1454.6,436.0 l46.8,-45.7" stroke="#FFFFFF" stroke-width="5" opacity="0.7" stroke-linecap="round"/><path d="M1475.8,308.5 c-16,-22 -22,-30 -22,-42 a22,22 0 1 1 44,0 c0,12 -6,20 -22,42 Z" fill="#B45309" opacity="0.55"/><circle cx="1475.8" cy="266.5" r="7.0" fill="#FFFFFF"/><path d="M973.6,805.2 c-16,-22 -22,-30 -22,-42 a22,22 0 1 1 44,0 c0,12 -6,20 -22,42 Z" fill="#B45309" opacity="0.62"/><circle cx="973.6" cy="763.2" r="7.0" fill="#FFFFFF"/><path d="M1440.4,462.4 c-16,-22 -22,-30 -22,-42 a22,22 0 1 1 44,0 c0,12 -6,20 -22,42 Z" fill="#B45309" opacity="0.69"/><circle cx="1440.4" cy="420.4" r="7.0" fill="#FFFFFF"/><path d="M1078.6,679.6 c-16,-22 -22,-30 -22,-42 a22,22 0 1 1 44,0 c0,12 -6,20 -22,42 Z" fill="#B45309" opacity="0.76"/><circle cx="1078.6" cy="637.6" r="7.0" fill="#FFFFFF"/><path d="M1473.5,338.3 c-16,-22 -22,-30 -22,-42 a22,22 0 1 1 44,0 c0,12 -6,20 -22,42 Z" fill="#B45309" opacity="0.83"/><circle cx="1473.5" cy="296.3" r="7.0" fill="#FFFFFF"/><path d="M1189.9,663.8 c-16,-22 -22,-30 -22,-42 a22,22 0 1 1 44,0 c0,12 -6,20 -22,42 Z" fill="#B45309" opacity="0.90"/><circle cx="1189.9" cy="621.8" r="7.0" fill="#FFFFFF"/></svg>