<svg xmlns="http://www.w3.org/2000/svg" viewBox="0 0 1600 1000" width="1600" height="1000"><rect x="0.0" y="0.0" width="1600.0" height="1000.0" rx="0" fill="#F6F7F9"/><rect x="0.0" y="0.0" width="250.0" height="1000.0" rx="0" fill="#FBFBFC"/><line x1="250" y1="0" x2="250" y2="1000" stroke="#E7E9EE" stroke-width="1"/><rect x="22.0" y="24.0" width="26.0" height="26.0" rx="8" fill="#0E8E9E"/><text x="58.0" y="42.0" font-family="Inter,Helvetica,Arial,sans-serif" font-size="14" font-weight="600" fill="#12141C" text-anchor="start">Policy Creator</text><rect x="24.0" y="81.0" width="14.0" height="14.0" rx="4" fill="#CFD4DB"/><rect x="48.0" y="83.0" width="100.0" height="9.0" rx="4.5" fill="#CFD4DB" opacity="0.8"/><rect x="12.0" y="116.0" width="226.0" height="34.0" rx="8" fill="#0E8E9E" opacity="0.1"/><rect x="24.0" y="125.0" width="14.0" height="14.0" rx="4" fill="#0E8E9E"/><rect x="48.0" y="127.0" width="100.0" height="9.0" rx="4.5" fill="#0E8E9E" opacity="0.85"/><rect x="24.0" y="169.0" width="14.0" height="14.0" rx="4" fill="#CFD4DB"/><rect x="48.0" y="171.0" width="100.0" height="9.0" rx="4.5" fill="#CFD4DB" opacity="0.8"/><rect x="24.0" y="213.0" width="14.0" height="14.0" rx="4" fill="#CFD4DB"/><rect x="48.0" y="215.0" width="100.0" height="9.0" rx="4.5" fill="#CFD4DB" opacity="0.8"/><rect x="24.0" y="257.0" width="14.0" height="14.0" rx="4" fill="#CFD4DB"/><rect x="48.0" y="259.0" width="100.0" height="9.0" rx="4.5" fill="#CFD4DB" opacity="0.8"/><rect x="24.0" y="301.0" width="14.0" height="14.0" rx="4" fill="#CFD4DB"/><rect x="48.0" y="303.0" width="100.0" height="9.0" rx="4.5" fill="#CFD4DB" opacity="0.8"/><rect x="24.0" y="345.0" width="14.0" height="14.0" rx="4" fill="#CFD4DB"/><rect x="48.0" y="347.0" width="100.0" height="9.0" rx="4.5" fill="#CFD4DB" opacity="0.8"/><rect x="12.0" y="936.0" width="226.0" height="46.0" rx="10" fill="#F6F7F9"/><rect x="24.0" y="947.0" width="24.0" height="24.0" rx="12.0" fill="#0E8E9E" opacity="0.18"/><circle cx="36.0" cy="955.9" r="3.8" fill="#0E8E9E" opacity="0.7"/><path d="M29.3,967.2 a6.7,5.8 0 0 1 13.4,0" fill="#0E8E9E" opacity="0.7"/><rect x="58.0" y="954.0" width="80.0" height="8.0" rx="4.0" fill="#CFD4DB" opacity="1.0"/><rect x="250.0" y="0.0" width="1350.0" height="72.0" rx="0" fill="#FFFFFF"/><line x1="250" y1="72" x2="1600" y2="72" stroke="#E7E9EE" stroke-width="1"/><text x="278.0" y="42.0" font-family="Inter,Helvetica,Arial,sans-serif" font-size="17" font-weight="600" fill="#12141C" text-anchor="start">Policy Creator</text><rect x="1168.0" y="19.0" width="280.0" height="34.0" rx="17" fill="#F6F7F9" stroke="#E7E9EE" stroke-width="1"/><circle cx="1190.0" cy="36.0" r="5.0" fill="#8B92A0"/><rect x="1206.0" y="32.0" width="106.4" height="8.0" rx="4.0" fill="#CFD4DB" opacity="1.0"/><rect x="1470.0" y="20.0" width="80.0" height="32.0" rx="8" fill="#0E8E9E"/><rect x="1486.0" y="32.0" width="48.0" height="8.0" rx="4.0" fill="#FFFFFF" opacity="0.95"/><rect x="1564.0" y="22.0" width="28.0" height="28.0" rx="14.0" fill="#0E8E9E" opacity="0.18"/><circle cx="1578.0" cy="32.4" r="4.5" fill="#0E8E9E" opacity="0.7"/><path d="M1570.2,45.5 a7.8,6.7 0 0 1 15.7,0" fill="#0E8E9E" opacity="0.7"/><rect x="282.0" y="100.0" width="745.9" height="868.0" rx="14" fill="#FFFFFF" stroke="#E7E9EE" stroke-width="1"/><rect x="306.0" y="132.0" width="223.8" height="12.0" rx="6.0" fill="#CFD4DB" opacity="1.0"/><rect x="306.0" y="170.0" width="149.2" height="8.0" rx="4.0" fill="#CFD4DB" opacity="0.8"/><rect x="306.0" y="186.0" width="697.9" height="48.0" rx="8" fill="#FFFFFF" stroke="#E7E9EE" stroke-width="1"/><rect x="322.0" y="206.0" width="253.6" height="9.0" rx="4.5" fill="#CFD4DB" opacity="1.0"/><rect x="306.0" y="258.0" width="149.2" height="8.0" rx="4.0" fill="#CFD4DB" opacity="0.8"/><rect x="306.0" y="274.0" width="697.9" height="48.0" rx="8" fill="#FFFFFF" stroke="#0E8E9E" stroke-width="2"/><rect x="322.0" y="294.0" width="253.6" height="9.0" rx="4.5" fill="#CFD4DB" opacity="1.0"/><rect x="306.0" y="346.0" width="149.2" height="8.0" rx="4.0" fill="#CFD4DB" opacity="0.8"/><rect x="306.0" y="362.0" width="697.9" height="48.0" rx="8" fill="#FFFFFF" stroke="#E7E9EE" stroke-width="1"/><rect x="322.0" y="382.0" width="253.6" height="9.0" rx="4.5" fill="#CFD4DB" opacity="1.0"/><rect x="306.0" y="434.0" width="149.2" height="8.0" rx="4.0" fill="#CFD4DB" opacity="0.8"/><rect x="306.0" y="450.0" width="697.9" height="48.0" rx="8" fill="#FFFFFF" stroke="#E7E9EE" stroke-width="1"/><rect x="322.0" y="470.0" width="253.6" height="9.0" rx="4.5" fill="#CFD4DB" opacity="1.0"/><rect x="306.0" y="526.0" width="697.9" height="52.0" rx="8" fill="#0E8E9E"/><rect x="594.9" y="547.0" width="120.0" height="10.0" rx="5.0" fill="#FFFFFF" opacity="0.95"/><rect x="1051.9" y="100.0" width="516.1" height="625.0" rx="14" fill="#FFFFFF" stroke="#E7E9EE" stroke-width="1"/><rect x="1073.9" y="130.0" width="206.4" height="11.0" rx="5.5" fill="#CFD4DB" opacity="1.0"/><rect x="1073.9" y="162.0" width="64.0" height="64.0" rx="10" fill="#0E8E9E" opacity="0.13"/><rect x="1151.9" y="176.0" width="185.8" height="9.0" rx="4.5" fill="#CFD4DB" opacity="1.0"/><rect x="1151.9" y="198.0" width="113.5" height="8.0" rx="4.0" fill="#CFD4DB" opacity="0.7"/><rect x="1073.9" y="244.0" width="64.0" height="64.0" rx="10" fill="#0E8E9E" opacity="0.13"/><rect x="1151.9" y="258.0" width="185.8" height="9.0" rx="4.5" fill="#CFD4DB" opacity="1.0"/><rect x="1151.9" y="280.0" width="113.5" height="8.0" rx="4.0" fill="#CFD4DB" opacity="0.7"/><rect x="1073.9" y="326.0" width="64.0" height="64.0" rx="10" fill="#0E8E9E" opacity="0.13"/><rect x="1151.9" y="340.0" width="185.8" height="9.0" rx="4.5" fill="#CFD4DB" opacity="1.0"/><rect x="1151.9" y="362.0" width="113.5" height="8.0" rx="4.0" fill="#CFD4DB" opacity="0.7"/><line x1="1073.88" y1="414" x2="1546.0" y2="414" stroke="#E7E9EE"/><rect x="1073.9" y="436.0" width="123.9" height="9.0" rx="4.5" fill="#CFD4DB" opacity="1.0"/><text x="1546.0" y="446.0" font-family="Inter,Helvetica,Arial,sans-serif" font-size="22" font-weight="600" fill="#12141C" text-anchor="end">1,248.00</text></svg>